<?xml version="1.0" encoding="utf-8"?>
<!-- Generator: Adobe Illustrator 17.0.0, SVG Export Plug-In . SVG Version: 6.00 Build 0)  -->
<!DOCTYPE svg PUBLIC "-//W3C//DTD SVG 1.1//EN" "http://www.w3.org/Graphics/SVG/1.1/DTD/svg11.dtd">
<svg version="1.1" id="Layer_1" xmlns="http://www.w3.org/2000/svg" xmlns:xlink="http://www.w3.org/1999/xlink" x="0px" y="0px"
	 width="26.913px" height="26.913px" viewBox="0 0 26.913 26.913" enable-background="new 0 0 26.913 26.913" xml:space="preserve">
<g>
	<g>
		<g>
			<path fill="#FFFFFF" d="M15.139,18.171h-0.346c0-0.737-0.6-1.337-1.337-1.337c-0.737,0-1.337,0.6-1.337,1.337h-0.346
				c0-0.928,0.755-1.683,1.683-1.683C14.384,16.488,15.139,17.243,15.139,18.171z"/>
		</g>
		<g>
			<rect x="11.774" y="18.171" fill="#FFFFFF" width="0.346" height="5.364"/>
		</g>
		<g>
			<rect x="14.793" y="18.171" fill="#FFFFFF" width="0.346" height="5.364"/>
		</g>
	</g>
	<g>
		<g>
			<path fill="#FFFFFF" d="M18.723,20.308h-0.346c0-0.737-0.6-1.337-1.337-1.337c-0.737,0-1.337,0.6-1.337,1.337h-0.346
				c0-0.928,0.755-1.683,1.683-1.683C17.968,18.625,18.723,19.38,18.723,20.308z"/>
		</g>
		<g>
			<rect x="15.357" y="20.308" fill="#FFFFFF" width="0.346" height="3.227"/>
		</g>
		<g>
			<rect x="18.377" y="20.308" fill="#FFFFFF" width="0.346" height="3.227"/>
		</g>
	</g>
	<g>
		<g>
			<path fill="#FFFFFF" d="M11.555,20.308H11.21c0-0.737-0.6-1.337-1.337-1.337s-1.337,0.6-1.337,1.337H8.19
				c0-0.928,0.755-1.683,1.683-1.683C10.801,18.625,11.555,19.38,11.555,20.308z"/>
		</g>
		<g>
			<rect x="8.19" y="20.308" fill="#FFFFFF" width="0.346" height="3.227"/>
		</g>
		<g>
			<rect x="11.21" y="20.308" fill="#FFFFFF" width="0.346" height="3.227"/>
		</g>
	</g>
	<g>
		<g>
			<g>
				<rect x="18.841" y="18.812" fill="#FFFFFF" width="0.346" height="4.723"/>
			</g>
			<g>
				<path fill="#FFFFFF" d="M19.014,18.985h-0.173v-0.346h0.173c0.737,0,1.337-0.6,1.337-1.337s-0.6-1.337-1.337-1.337h-0.173
					v-0.346h0.173c0.928,0,1.683,0.755,1.683,1.683C20.697,18.23,19.942,18.985,19.014,18.985z"/>
			</g>
		</g>
		<g>
			<g>
				<rect x="7.726" y="18.812" fill="#FFFFFF" width="0.346" height="4.723"/>
			</g>
			<g>
				<path fill="#FFFFFF" d="M8.072,18.985H7.899c-0.928,0-1.683-0.755-1.683-1.683c0-0.928,0.755-1.683,1.683-1.683h11.288v0.346
					H7.899c-0.737,0-1.337,0.6-1.337,1.337s0.6,1.337,1.337,1.337h0.173V18.985z"/>
			</g>
		</g>
	</g>
	<g>
		<path fill="#FFFFFF" d="M19.187,15.965H7.726v-0.964h11.461V15.965z M8.072,15.619h10.769v-0.272H8.072V15.619z"/>
	</g>
	<g>
		<path fill="#FFFFFF" d="M21.872,12.888H5.041v-0.964h16.832V12.888z M5.386,12.542h16.14V12.27H5.386V12.542z"/>
	</g>
	<g>
		<path fill="#FFFFFF" d="M19.093,15.347H7.82l-2.438-2.805H21.53L19.093,15.347z M7.978,15.001h10.958l1.837-2.113H6.141
			L7.978,15.001z"/>
	</g>
	<g>
		<path fill="#FFFFFF" d="M19.014,18.545c-0.685,0-1.243-0.557-1.243-1.243s0.557-1.243,1.243-1.243
			c0.685,0,1.243,0.557,1.243,1.243S19.699,18.545,19.014,18.545z M19.014,16.405c-0.494,0-0.897,0.402-0.897,0.897
			c0,0.494,0.402,0.897,0.897,0.897c0.494,0,0.897-0.402,0.897-0.897C19.911,16.808,19.508,16.405,19.014,16.405z"/>
	</g>
	<g>
		<path fill="#FFFFFF" d="M7.899,18.545c-0.685,0-1.243-0.557-1.243-1.243s0.557-1.243,1.243-1.243c0.685,0,1.242,0.557,1.242,1.243
			S8.584,18.545,7.899,18.545z M7.899,16.405c-0.494,0-0.897,0.402-0.897,0.897c0,0.494,0.402,0.897,0.897,0.897
			c0.494,0,0.897-0.402,0.897-0.897C8.795,16.808,8.393,16.405,7.899,16.405z"/>
	</g>
</g>
<g>
	<g>
		<path fill="#FFFFFF" d="M9.582,11.969c-1.442,0-2.615-1.173-2.615-2.615s1.173-2.615,2.615-2.615s2.615,1.173,2.615,2.615
			S11.024,11.969,9.582,11.969z M9.582,7.085c-1.251,0-2.269,1.018-2.269,2.269s1.018,2.269,2.269,2.269s2.269-1.018,2.269-2.269
			S10.834,7.085,9.582,7.085z"/>
	</g>
	<g>
		<path fill="#FFFFFF" d="M17.33,11.969c-1.442,0-2.615-1.173-2.615-2.615s1.173-2.615,2.615-2.615s2.615,1.173,2.615,2.615
			S18.772,11.969,17.33,11.969z M17.33,7.085c-1.251,0-2.269,1.018-2.269,2.269s1.018,2.269,2.269,2.269s2.269-1.018,2.269-2.269
			S18.581,7.085,17.33,7.085z"/>
	</g>
	<g>
		<path fill="#FFFFFF" d="M12.871,10.91c-0.023,0-0.045-0.004-0.067-0.014L9.515,9.514C9.471,9.495,9.436,9.458,9.42,9.412
			C9.403,9.366,9.407,9.316,9.43,9.273l1.941-3.65c0.033-0.063,0.099-0.101,0.172-0.091c0.071,0.008,0.129,0.058,0.147,0.127
			l1.347,5.034c0.017,0.064-0.004,0.132-0.053,0.175C12.952,10.896,12.912,10.91,12.871,10.91z M9.824,9.268l2.789,1.173
			L11.47,6.173L9.824,9.268z"/>
	</g>
	<g>
		<path fill="#FFFFFF" d="M12.871,10.91c-0.034,0-0.068-0.01-0.098-0.03c-0.079-0.054-0.099-0.162-0.045-0.24l3.458-5.034
			c0.038-0.055,0.105-0.083,0.171-0.073c0.067,0.011,0.12,0.06,0.138,0.125l1.001,3.65c0.025,0.092-0.029,0.187-0.121,0.213
			c-0.091,0.025-0.187-0.029-0.212-0.121l-0.903-3.291l-3.247,4.727C12.98,10.884,12.926,10.91,12.871,10.91z"/>
	</g>
	<g>
		<path fill="#FFFFFF" d="M16.329,5.877h-4.805c-0.078,0-0.146-0.052-0.167-0.126L11.06,4.683c-0.014-0.052-0.004-0.108,0.029-0.151
			c0.033-0.043,0.084-0.068,0.138-0.068h1.164c0.096,0,0.173,0.077,0.173,0.173c0,0.096-0.077,0.173-0.173,0.173h-0.937l0.201,0.721
			h4.449l-0.225-0.85c-0.014-0.052-0.003-0.107,0.03-0.15c0.033-0.042,0.083-0.067,0.137-0.067h1.174
			c0.096,0,0.173,0.077,0.173,0.173c0,0.096-0.077,0.173-0.173,0.173h-0.949l0.225,0.85c0.014,0.052,0.003,0.107-0.03,0.15
			C16.433,5.852,16.383,5.877,16.329,5.877z"/>
	</g>
	<g>
		<path fill="#FFFFFF" d="M17.225,5.85c-0.096,0-0.173-0.077-0.173-0.173c0-0.096,0.077-0.173,0.173-0.173
			c0.191,0,0.347-0.156,0.347-0.347c0-0.191-0.156-0.347-0.347-0.347c-0.096,0-0.173-0.077-0.173-0.173s0.077-0.173,0.173-0.173
			c0.382,0,0.693,0.311,0.693,0.693C17.918,5.539,17.607,5.85,17.225,5.85z"/>
	</g>
	<g>
		<path fill="#FFFFFF" d="M11.227,4.809h-0.746c-0.096,0-0.173-0.077-0.173-0.173c0-0.096,0.077-0.173,0.173-0.173h0.746
			c0.096,0,0.173,0.077,0.173,0.173C11.4,4.732,11.322,4.809,11.227,4.809z"/>
	</g>
</g>
<g>
	<path fill="#FFFFFF" d="M13.456,26.924C6.037,26.924,0,20.887,0,13.467C0,6.047,6.037,0.011,13.456,0.011
		c7.42,0,13.456,6.037,13.456,13.457C26.913,20.887,20.876,26.924,13.456,26.924z M13.456,0.357c-7.229,0-13.11,5.881-13.11,13.111
		c0,7.229,5.881,13.11,13.11,13.11s13.11-5.881,13.11-13.11C26.567,6.238,20.685,0.357,13.456,0.357z"/>
</g>
</svg>
